<?xml version="1.0" standalone="no"?>
<!DOCTYPE svg PUBLIC "-//W3C//DTD SVG 20010904//EN"
 "http://www.w3.org/TR/2001/REC-SVG-20010904/DTD/svg10.dtd">
<svg version="1.0" xmlns="http://www.w3.org/2000/svg"
 width="250.000000pt" height="250.000000pt" viewBox="0 0 250.000000 250.000000"
 preserveAspectRatio="xMidYMid meet">
<metadata>
Created by potrace 1.11, written by Peter Selinger 2001-2013
</metadata>
<g transform="translate(0.000000,250.000000) scale(0.100000,-0.100000)"
fill="#000000" stroke="none">
<path d="M1056 2474 c-263 -41 -488 -156 -682 -349 -151 -150 -250 -310 -312
-505 -43 -135 -56 -226 -55 -380 0 -213 39 -374 136 -564 220 -432 666 -692
1152 -673 312 12 581 125 811 340 339 316 470 827 329 1276 -77 244 -232 464
-434 617 -100 76 -293 174 -401 204 -178 49 -371 61 -544 34z m461 -596 c15
-14 23 -33 23 -56 0 -53 -407 -1141 -437 -1170 -36 -33 -85 -30 -117 9 -14 17
-26 37 -26 45 0 32 423 1150 443 1172 27 29 82 30 114 0z m-651 -212 c21 -18
28 -32 28 -60 0 -34 -11 -48 -147 -184 -81 -81 -147 -152 -147 -157 0 -5 65
-75 145 -155 126 -128 145 -151 145 -179 0 -45 -38 -81 -87 -81 -35 0 -49 11
-245 208 l-208 207 213 213 c187 186 217 212 244 212 19 0 43 -10 59 -24z
m1081 -188 l213 -213 -208 -207 c-203 -203 -209 -208 -249 -208 -51 0 -83 34
-83 87 0 32 14 50 147 184 l147 149 -152 153 c-156 157 -166 173 -140 220 17
33 39 46 77 47 32 0 52 -17 248 -212z"/>
</g>
</svg>
